<?xml version="1.0" standalone="no"?>
<svg version="1.0" xmlns="http://www.w3.org/2000/svg"
 width="200.000000pt" height="200.000000pt" viewBox="0 0 200.000000 200.000000"
 preserveAspectRatio="xMidYMid meet">

<g transform="translate(0.000000,200.000000) scale(0.100000,-0.100000)"
fill="#000000" stroke="none">
<path d="M715 1394 c-34 -212 -114 -391 -236 -528 -59 -66 -196 -180 -301
-249 -131 -86 -170 -143 -171 -252 -3 -151 116 -270 268 -269 102 1 200 67
241 162 11 24 19 88 24 187 17 311 114 540 307 732 46 46 83 85 83 88 0 2 -28
23 -62 46 -35 23 -82 60 -105 82 l-42 40 -6 -39z"/>
</g>
</svg>
